<?xml version="1.0" encoding="UTF-8"?>
<svg width="512" height="512" version="1.1" viewBox="0 0 135.47 135.47" xmlns="http://www.w3.org/2000/svg">
 <g transform="matrix(.26458 0 0 .26458 812.77 1081.8)">
  <path d="m-2959.9-4047.3a12.001 12.001 0 0 0-10.459 6.115l-57.858 102.86c-7.42 6.209-12.182 15.514-12.182 25.833v57.9c0 8.242 3.047 15.83 8.051 21.72-5.004 5.889-8.051 13.477-8.051 21.719v57.903c0 8.24 3.046 15.826 8.047 21.715-5.001 5.888-8.047 13.472-8.047 21.711v57.903c0 18.47 15.246 33.715 33.716 33.715h381.57c18.47 0 33.715-15.245 33.715-33.715v-57.903c0-8.239-3.048-15.823-8.049-21.711 5.001-5.889 8.049-13.475 8.049-21.715v-57.903c0-8.242-3.05-15.83-8.053-21.719 5.003-5.89 8.053-13.478 8.053-21.72v-57.9c0-10.321-4.766-19.628-12.188-25.837l-57.854-102.85a12.001 12.001 0 0 0-10.459-6.115zm7.017 24h273.96l43.365 77.089h-360.7zm-53.8 101.09h381.57c0.596 0 1.165 0.069 1.725 0.16 0.319 0.056 0.629 0.13 0.933 0.215 0.119 0.031 0.235 0.068 0.352 0.104 0.871 0.281 1.686 0.67 2.427 1.171a12.001 12.001 0 0 0 0.315 0.135c2.431 1.72 3.959 4.546 3.959 7.929v57.9c0 5.589-4.126 9.715-9.715 9.715h-381.57c-5.589 0-9.715-4.126-9.715-9.715v-57.9c0-3.411 1.547-6.26 4.013-7.976a12.001 12.001 0 0 0 0.248-0.084c0.746-0.503 1.559-0.892 2.426-1.174 0.13-0.039 0.258-0.079 0.391-0.113 0.296-0.082 0.596-0.153 0.906-0.207 0.561-0.091 1.133-0.16 1.731-0.16zm0 101.34h381.57c5.589 0 9.715 4.124 9.715 9.713v57.903c0 5.589-4.126 9.715-9.715 9.715h-381.57c-5.589 0-9.715-4.126-9.715-9.715v-57.903c0-5.589 4.126-9.713 9.715-9.713zm0 101.33h381.57c5.589 0 9.715 4.124 9.715 9.713v57.903c0 5.589-4.126 9.715-9.715 9.715h-381.57c-5.589 0-9.715-4.126-9.715-9.715v-57.903c0-5.589 4.126-9.713 9.715-9.713z" style="-inkscape-stroke:none;color:#000000;stroke-linecap:round;stroke-linejoin:round"/>
  <path d="m-2979.2-3895.5a12 12 0 0 0-12 12 12 12 0 0 0 12 12h284.57a12 12 0 0 0 12-12 12 12 0 0 0-12-12z" style="-inkscape-stroke:none;color:#000000;stroke-linecap:round"/>
  <path d="m-2640.6-3883.5a11.512 11.512 0 0 1-11.512 11.512 11.512 11.512 0 0 1-11.512-11.512 11.512 11.512 0 0 1 11.512-11.512 11.512 11.512 0 0 1 11.512 11.512z" style="-inkscape-stroke:none;color:#000000;stroke-linecap:round;stroke-linejoin:round;stroke-width:24"/>
  <path d="m-2979.2-3794.2a12 12 0 0 0-12 12 12 12 0 0 0 12 12h284.57a12 12 0 0 0 12-12 12 12 0 0 0-12-12z" style="-inkscape-stroke:none;color:#000000;stroke-linecap:round"/>
  <path d="m-2640.6-3782.2a11.512 11.512 0 0 1-11.512 11.512 11.512 11.512 0 0 1-11.512-11.512 11.512 11.512 0 0 1 11.512-11.512 11.512 11.512 0 0 1 11.512 11.512z" style="-inkscape-stroke:none;color:#000000;stroke-linecap:round;stroke-linejoin:round;stroke-width:24"/>
  <path d="m-2979.2-3692.9a12 12 0 0 0-12 12 12 12 0 0 0 12 12h284.57a12 12 0 0 0 12-12 12 12 0 0 0-12-12z" style="-inkscape-stroke:none;color:#000000;stroke-linecap:round"/>
  <path d="m-2640.6-3680.9a11.512 11.512 0 0 1-11.512 11.512 11.512 11.512 0 0 1-11.512-11.512 11.512 11.512 0 0 1 11.512-11.512 11.512 11.512 0 0 1 11.512 11.512z" style="-inkscape-stroke:none;color:#000000;stroke-linecap:round;stroke-linejoin:round;stroke-width:24"/>
 </g>
</svg>
